<?xml version="1.0" standalone="no"?>
<!DOCTYPE svg PUBLIC "-//W3C//DTD SVG 20010904//EN"
 "http://www.w3.org/TR/2001/REC-SVG-20010904/DTD/svg10.dtd">
<svg version="1.0" xmlns="http://www.w3.org/2000/svg"
 width="666.000000pt" height="375.000000pt" viewBox="0 0 666.000000 375.000000"
 preserveAspectRatio="xMidYMid meet">

<g transform="translate(0.000000,375.000000) scale(0.100000,-0.100000)"
fill="#000000" stroke="none">
<path d="M1820 2646 c-22 -22 -10 -36 33 -36 52 0 107 -27 125 -60 21 -42 14
-79 -88 -460 -41 -155 -92 -347 -175 -660 -24 -91 -58 -216 -74 -278 -17 -62
-30 -116 -29 -120 1 -4 -4 -20 -11 -37 -7 -16 -13 -38 -14 -48 -1 -9 -4 -17
-7 -17 -3 0 -14 -16 -25 -36 -24 -45 -58 -63 -149 -78 -50 -8 -71 -16 -71 -26
0 -8 -3 -17 -7 -20 -10 -8 999 -4 1072 4 76 8 201 37 281 65 201 69 347 213
390 384 18 73 8 212 -20 266 -59 114 -200 205 -376 242 -49 10 -111 19 -137
19 -27 0 -48 5 -48 10 0 6 13 10 29 10 45 0 173 29 189 43 8 6 17 11 19 9 10
-9 78 15 165 59 75 38 114 65 171 122 64 63 78 83 105 154 24 62 32 98 32 147
0 36 -5 68 -10 71 -6 4 -8 10 -5 15 10 16 -34 90 -79 135 -48 48 -167 99 -270
117 -79 14 -1003 17 -1016 4z m870 -54 c26 -13 43 -33 67 -82 29 -59 33 -74
33 -157 0 -86 -16 -188 -41 -258 -18 -49 -53 -119 -64 -127 -5 -4 -6 -8 -1 -8
21 0 -124 -124 -177 -151 -58 -30 -178 -52 -252 -47 -32 2 -34 4 -32 33 1 16
5 32 8 35 5 5 53 178 63 230 3 14 17 68 31 120 15 52 37 137 51 188 37 146 72
213 119 233 38 15 158 10 195 -9z m-212 -885 c17 -10 32 -15 32 -11 0 3 17
-12 38 -33 80 -85 110 -200 92 -357 -13 -114 -13 -116 -28 -144 -7 -12 -10
-27 -7 -32 3 -6 2 -10 -3 -10 -5 0 -17 -20 -26 -45 -38 -97 -171 -208 -289
-240 -78 -21 -232 -19 -246 4 -5 7 -13 11 -17 8 -20 -12 -13 121 10 218 13 55
22 103 20 107 -3 5 -1 8 4 8 5 0 12 12 15 28 2 15 21 87 40 161 20 74 36 137
35 140 -1 3 2 13 5 21 15 38 36 109 42 145 4 22 10 44 13 49 9 16 234 1 270
-17z"/>
<path d="M3660 2647 c0 -5 -4 -5 -10 -2 -5 3 -10 -2 -10 -13 0 -14 7 -19 31
-20 54 -1 92 -14 116 -38 34 -35 30 -92 -23 -294 -25 -96 -54 -206 -64 -245
-10 -38 -30 -115 -45 -170 -15 -55 -44 -165 -65 -245 -163 -616 -178 -669
-205 -716 -32 -55 -61 -72 -147 -86 -74 -12 -88 -20 -87 -48 0 -10 2 -11 6 -2
2 6 8 10 12 8 4 -3 241 -6 527 -6 542 -2 564 0 729 44 208 56 375 176 437 314
64 142 62 282 -5 388 -78 124 -264 216 -464 231 -40 3 -73 9 -73 12 0 4 35 12
79 18 177 26 352 103 465 203 66 58 82 77 114 137 53 102 64 221 27 309 -17
42 -84 116 -98 107 -5 -3 -7 -1 -4 4 10 17 -95 72 -165 88 -13 2 -45 10 -73
16 -59 13 -1005 19 -1005 6z m835 -47 c97 -37 137 -154 115 -339 -27 -218
-134 -387 -293 -461 -54 -25 -76 -29 -153 -30 -116 -2 -126 -2 -120 8 3 5 7
19 10 33 3 13 25 101 51 194 25 94 59 222 76 285 46 175 55 203 80 251 13 24
22 47 21 51 -1 4 6 4 15 1 9 -4 14 -2 10 3 -8 15 152 18 188 4z m-335 -871
c68 -2 113 -8 128 -17 12 -8 22 -11 22 -7 0 4 7 2 15 -5 8 -6 20 -8 27 -4 7 4
10 4 6 0 -3 -4 7 -22 23 -38 80 -84 107 -236 75 -413 -10 -49 -18 -96 -18
-102 -1 -7 -5 -13 -10 -13 -4 0 -8 -7 -8 -15 0 -9 -12 -33 -26 -55 -14 -21
-23 -44 -19 -50 3 -6 3 -9 -2 -8 -5 2 -31 -20 -58 -48 -93 -97 -208 -139 -361
-132 -107 4 -118 14 -117 100 0 37 11 105 27 163 15 55 45 168 66 250 21 83
46 177 56 210 9 33 18 67 19 75 3 21 26 103 32 113 2 4 7 5 11 3 4 -2 54 -5
112 -7z"/>
</g>
</svg>
